<?xml version="1.0" encoding="UTF-8" standalone="no"?>
<!DOCTYPE svg PUBLIC "-//W3C//DTD SVG 1.1//EN"
 "http://www.w3.org/Graphics/SVG/1.1/DTD/svg11.dtd">
<!-- Generated by graphviz version 2.40.1 (20161225.0304)
 -->
<!-- Title: %3 Pages: 1 -->
<svg width="619pt" height="404pt"
 viewBox="0.00 0.00 618.78 404.00" xmlns="http://www.w3.org/2000/svg" xmlns:xlink="http://www.w3.org/1999/xlink">
<g id="graph0" class="graph" transform="scale(1 1) rotate(0) translate(4 400)">
<title>%3</title>
<polygon fill="#ffffff" stroke="transparent" points="-4,4 -4,-400 614.7845,-400 614.7845,4 -4,4"/>
<!-- [root] aws_instance.secondserver -->
<g id="node1" class="node">
<title>[root] aws_instance.secondserver</title>
<polygon fill="none" stroke="#000000" points="544.9059,-252 377.4701,-252 377.4701,-216 544.9059,-216 544.9059,-252"/>
<text text-anchor="middle" x="461.188" y="-229.8" font-family="Times,serif" font-size="14.00" fill="#000000">aws_instance.secondserver</text>
</g>
<!-- [root] aws_subnet.subnet2 -->
<g id="node4" class="node">
<title>[root] aws_subnet.subnet2</title>
<polygon fill="none" stroke="#000000" points="424.5645,-180 295.8115,-180 295.8115,-144 424.5645,-144 424.5645,-180"/>
<text text-anchor="middle" x="360.188" y="-157.8" font-family="Times,serif" font-size="14.00" fill="#000000">aws_subnet.subnet2</text>
</g>
<!-- [root] aws_instance.secondserver&#45;&gt;[root] aws_subnet.subnet2 -->
<g id="edge1" class="edge">
<title>[root] aws_instance.secondserver&#45;&gt;[root] aws_subnet.subnet2</title>
<path fill="none" stroke="#000000" d="M435.7014,-215.8314C423.0221,-206.7927 407.5284,-195.7476 393.8825,-186.0198"/>
<polygon fill="#000000" stroke="#000000" points="395.8409,-183.1176 385.6664,-180.1628 391.7775,-188.8176 395.8409,-183.1176"/>
</g>
<!-- [root] data.aws_ami.ubuntu -->
<g id="node6" class="node">
<title>[root] data.aws_ami.ubuntu</title>
<polygon fill="none" stroke="#000000" points="506.6606,-108 371.7153,-108 371.7153,-72 506.6606,-72 506.6606,-108"/>
<text text-anchor="middle" x="439.188" y="-85.8" font-family="Times,serif" font-size="14.00" fill="#000000">data.aws_ami.ubuntu</text>
</g>
<!-- [root] aws_instance.secondserver&#45;&gt;[root] data.aws_ami.ubuntu -->
<g id="edge2" class="edge">
<title>[root] aws_instance.secondserver&#45;&gt;[root] data.aws_ami.ubuntu</title>
<path fill="none" stroke="#000000" d="M458.4017,-215.7623C454.6493,-191.201 447.9341,-147.2474 443.5199,-118.3541"/>
<polygon fill="#000000" stroke="#000000" points="446.9219,-117.4463 441.9517,-108.0896 440.0022,-118.5035 446.9219,-117.4463"/>
</g>
<!-- [root] aws_security_group.subnetsecurity -->
<g id="node2" class="node">
<title>[root] aws_security_group.subnetsecurity</title>
<polygon fill="none" stroke="#000000" points="359.8091,-252 146.5669,-252 146.5669,-216 359.8091,-216 359.8091,-252"/>
<text text-anchor="middle" x="253.188" y="-229.8" font-family="Times,serif" font-size="14.00" fill="#000000">aws_security_group.subnetsecurity</text>
</g>
<!-- [root] aws_vpc.environment&#45;example -->
<g id="node5" class="node">
<title>[root] aws_vpc.environment&#45;example</title>
<polygon fill="none" stroke="#000000" points="353.0164,-108 161.3596,-108 161.3596,-72 353.0164,-72 353.0164,-108"/>
<text text-anchor="middle" x="257.188" y="-85.8" font-family="Times,serif" font-size="14.00" fill="#000000">aws_vpc.environment&#45;example</text>
</g>
<!-- [root] aws_security_group.subnetsecurity&#45;&gt;[root] aws_vpc.environment&#45;example -->
<g id="edge3" class="edge">
<title>[root] aws_security_group.subnetsecurity&#45;&gt;[root] aws_vpc.environment&#45;example</title>
<path fill="none" stroke="#000000" d="M253.6946,-215.7623C254.3768,-191.201 255.5978,-147.2474 256.4004,-118.3541"/>
<polygon fill="#000000" stroke="#000000" points="259.9064,-118.183 256.6855,-108.0896 252.9091,-117.9885 259.9064,-118.183"/>
</g>
<!-- [root] aws_subnet.subnet1 -->
<g id="node3" class="node">
<title>[root] aws_subnet.subnet1</title>
<polygon fill="none" stroke="#000000" points="128.5645,-252 -.1885,-252 -.1885,-216 128.5645,-216 128.5645,-252"/>
<text text-anchor="middle" x="64.188" y="-229.8" font-family="Times,serif" font-size="14.00" fill="#000000">aws_subnet.subnet1</text>
</g>
<!-- [root] aws_subnet.subnet1&#45;&gt;[root] aws_vpc.environment&#45;example -->
<g id="edge4" class="edge">
<title>[root] aws_subnet.subnet1&#45;&gt;[root] aws_vpc.environment&#45;example</title>
<path fill="none" stroke="#000000" d="M88.6316,-215.7623C123.1457,-190.0108 186.2309,-142.942 224.6679,-114.2637"/>
<polygon fill="#000000" stroke="#000000" points="227.021,-116.8749 232.9429,-108.0896 222.8349,-111.2645 227.021,-116.8749"/>
</g>
<!-- [root] aws_subnet.subnet2&#45;&gt;[root] aws_vpc.environment&#45;example -->
<g id="edge5" class="edge">
<title>[root] aws_subnet.subnet2&#45;&gt;[root] aws_vpc.environment&#45;example</title>
<path fill="none" stroke="#000000" d="M334.1967,-143.8314C321.2664,-134.7927 305.4658,-123.7476 291.5497,-114.0198"/>
<polygon fill="#000000" stroke="#000000" points="293.3723,-111.0235 283.1709,-108.1628 289.3617,-116.7608 293.3723,-111.0235"/>
</g>
<!-- [root] provider.aws -->
<g id="node7" class="node">
<title>[root] provider.aws</title>
<polygon fill="none" stroke="#000000" points="347.188,-36 268.5797,-18 347.188,0 425.7963,-18 347.188,-36"/>
<text text-anchor="middle" x="347.188" y="-13.8" font-family="Times,serif" font-size="14.00" fill="#000000">provider.aws</text>
</g>
<!-- [root] aws_vpc.environment&#45;example&#45;&gt;[root] provider.aws -->
<g id="edge6" class="edge">
<title>[root] aws_vpc.environment&#45;example&#45;&gt;[root] provider.aws</title>
<path fill="none" stroke="#000000" d="M279.8988,-71.8314C292.5429,-61.716 308.3281,-49.0879 321.4313,-38.6054"/>
<polygon fill="#000000" stroke="#000000" points="323.9724,-41.0547 329.5947,-32.0747 319.5995,-35.5886 323.9724,-41.0547"/>
</g>
<!-- [root] data.aws_ami.ubuntu&#45;&gt;[root] provider.aws -->
<g id="edge7" class="edge">
<title>[root] data.aws_ami.ubuntu&#45;&gt;[root] provider.aws</title>
<path fill="none" stroke="#000000" d="M415.9725,-71.8314C402.9243,-61.6197 386.6038,-48.8472 373.1351,-38.3065"/>
<polygon fill="#000000" stroke="#000000" points="375.2044,-35.4815 365.1723,-32.0747 370.8903,-40.9941 375.2044,-35.4815"/>
</g>
<!-- [root] meta.count&#45;boundary (count boundary fixup) -->
<g id="node8" class="node">
<title>[root] meta.count&#45;boundary (count boundary fixup)</title>
<ellipse fill="none" stroke="#000000" cx="419.188" cy="-306" rx="191.6931" ry="18"/>
<text text-anchor="middle" x="419.188" y="-301.8" font-family="Times,serif" font-size="14.00" fill="#000000">[root] meta.count&#45;boundary (count boundary fixup)</text>
</g>
<!-- [root] meta.count&#45;boundary (count boundary fixup)&#45;&gt;[root] aws_instance.secondserver -->
<g id="edge8" class="edge">
<title>[root] meta.count&#45;boundary (count boundary fixup)&#45;&gt;[root] aws_instance.secondserver</title>
<path fill="none" stroke="#000000" d="M429.7864,-287.8314C434.4757,-279.7925 440.0908,-270.1666 445.2678,-261.2918"/>
<polygon fill="#000000" stroke="#000000" points="448.4314,-262.8146 450.4469,-252.4133 442.3849,-259.2875 448.4314,-262.8146"/>
</g>
<!-- [root] meta.count&#45;boundary (count boundary fixup)&#45;&gt;[root] aws_security_group.subnetsecurity -->
<g id="edge9" class="edge">
<title>[root] meta.count&#45;boundary (count boundary fixup)&#45;&gt;[root] aws_security_group.subnetsecurity</title>
<path fill="none" stroke="#000000" d="M378.5798,-288.3868C356.1247,-278.6472 328.0109,-266.4533 304.0977,-256.0813"/>
<polygon fill="#000000" stroke="#000000" points="305.3868,-252.8255 294.8199,-252.0572 302.6014,-259.2474 305.3868,-252.8255"/>
</g>
<!-- [root] meta.count&#45;boundary (count boundary fixup)&#45;&gt;[root] aws_subnet.subnet1 -->
<g id="edge10" class="edge">
<title>[root] meta.count&#45;boundary (count boundary fixup)&#45;&gt;[root] aws_subnet.subnet1</title>
<path fill="none" stroke="#000000" d="M329.4048,-290.0517C276.3736,-280.3374 207.7153,-267.2536 138.4132,-252.2192"/>
<polygon fill="#000000" stroke="#000000" points="139.148,-248.7973 128.6317,-250.085 137.6557,-255.6364 139.148,-248.7973"/>
</g>
<!-- [root] provider.aws (close) -->
<g id="node9" class="node">
<title>[root] provider.aws (close)</title>
<ellipse fill="none" stroke="#000000" cx="105.188" cy="-306" rx="104.3276" ry="18"/>
<text text-anchor="middle" x="105.188" y="-301.8" font-family="Times,serif" font-size="14.00" fill="#000000">[root] provider.aws (close)</text>
</g>
<!-- [root] provider.aws (close)&#45;&gt;[root] aws_instance.secondserver -->
<g id="edge11" class="edge">
<title>[root] provider.aws (close)&#45;&gt;[root] aws_instance.secondserver</title>
<path fill="none" stroke="#000000" d="M172.9868,-292.2879C228.0236,-281.1568 306.2338,-265.339 367.2964,-252.9893"/>
<polygon fill="#000000" stroke="#000000" points="368.2203,-256.3734 377.3281,-250.9604 366.8327,-249.5123 368.2203,-256.3734"/>
</g>
<!-- [root] provider.aws (close)&#45;&gt;[root] aws_security_group.subnetsecurity -->
<g id="edge12" class="edge">
<title>[root] provider.aws (close)&#45;&gt;[root] aws_security_group.subnetsecurity</title>
<path fill="none" stroke="#000000" d="M140.2619,-288.937C160.143,-279.2651 185.2643,-267.0439 206.7625,-256.5854"/>
<polygon fill="#000000" stroke="#000000" points="208.5786,-259.5941 216.0398,-252.0721 205.5163,-253.2995 208.5786,-259.5941"/>
</g>
<!-- [root] provider.aws (close)&#45;&gt;[root] aws_subnet.subnet1 -->
<g id="edge13" class="edge">
<title>[root] provider.aws (close)&#45;&gt;[root] aws_subnet.subnet1</title>
<path fill="none" stroke="#000000" d="M94.842,-287.8314C90.2643,-279.7925 84.7828,-270.1666 79.7291,-261.2918"/>
<polygon fill="#000000" stroke="#000000" points="82.6632,-259.3712 74.6733,-252.4133 76.5803,-262.8351 82.6632,-259.3712"/>
</g>
<!-- [root] root -->
<g id="node10" class="node">
<title>[root] root</title>
<ellipse fill="none" stroke="#000000" cx="262.188" cy="-378" rx="46.8976" ry="18"/>
<text text-anchor="middle" x="262.188" y="-373.8" font-family="Times,serif" font-size="14.00" fill="#000000">[root] root</text>
</g>
<!-- [root] root&#45;&gt;[root] meta.count&#45;boundary (count boundary fixup) -->
<g id="edge14" class="edge">
<title>[root] root&#45;&gt;[root] meta.count&#45;boundary (count boundary fixup)</title>
<path fill="none" stroke="#000000" d="M292.4592,-364.1177C314.8387,-353.8544 345.7568,-339.6754 371.4513,-327.892"/>
<polygon fill="#000000" stroke="#000000" points="373.0251,-331.0208 380.6558,-323.6708 370.1071,-324.658 373.0251,-331.0208"/>
</g>
<!-- [root] root&#45;&gt;[root] provider.aws (close) -->
<g id="edge15" class="edge">
<title>[root] root&#45;&gt;[root] provider.aws (close)</title>
<path fill="none" stroke="#000000" d="M231.9168,-364.1177C209.0611,-353.6361 177.2996,-339.0703 151.2919,-327.1432"/>
<polygon fill="#000000" stroke="#000000" points="152.5463,-323.868 141.9975,-322.8808 149.6282,-330.2308 152.5463,-323.868"/>
</g>
</g>
</svg>
